# xmcd
# 
# Track frame offsets:
#     150
#     17662
#     32705
#     47893
#     61699
#     91235
#     109415
#     121431
#     149925
#     165033
#     180968
#     206874
#     222558
#     246691
#     262462
#     276578
#     290575
# 
# Disc length: 4105
# 
# Revision: 1
# Processed by: cddbd v1.5.2PL0 Copyright (c) Steve Scherf et al.
# Submitted via: BonkEnc v1.0.8
# 
DISCID=18100711
DTITLE=FERNANDO E SOROCABA - ACUSTICO - FERNANDO E SOROCABA - ACUSTICO
DYEAR=0
DGENRE=
TTITLE0=DA COR DO PECADO
TTITLE1=A CASA CAIU
TTITLE2=ATE O FINAL
TTITLE3=CELEBRIDADE
TTITLE4=QUE RAIVA QUE DA-AQUI A TRISTEZA PULA DE ALEGRIA-O MUNDO AVISOU
TTITLE5=MADRI
TTITLE6=CHEVETAO
TTITLE7=JULIANA-FORCA DE UM FURACAO-ESTRELA SOLITARIA
TTITLE8=PAGA PAU
TTITLE9=DELEGADA
TTITLE10=LUZ DA MINHA MANHA-SORRY
TTITLE11=A LOUCA
TTITLE12=VENDAVAL
TTITLE13=A CASA CAIU (AO VIVO) - TOUR 2010
TTITLE14=TOP DO VERAO
TTITLE15=TE PEÇOÇ VOLTA
TTITLE16=ME LIGA
EXTD=
EXTT0=
EXTT1=
EXTT2=
EXTT3=
EXTT4=
EXTT5=
EXTT6=
EXTT7=
EXTT8=
EXTT9=
EXTT10=
EXTT11=
EXTT12=
EXTT13=
EXTT14=
EXTT15=
EXTT16=
PLAYORDER=
